<svg width="320" height="220" viewBox="0 0 320 220" fill="none" xmlns="http://www.w3.org/2000/svg">
  <g stroke="#3b3328" stroke-width="2.5" stroke-linecap="round" stroke-linejoin="round">
    <circle cx="70" cy="48" r="18" />
    <line x1="70" y1="18" x2="70" y2="6" />
    <line x1="70" y1="90" x2="70" y2="102" />
    <line x1="40" y1="48" x2="28" y2="48" />
    <line x1="112" y1="48" x2="100" y2="48" />
    <line x1="48" y1="26" x2="40" y2="18" />
    <line x1="92" y1="26" x2="100" y2="18" />
    <line x1="48" y1="70" x2="40" y2="78" />
    <line x1="92" y1="70" x2="100" y2="78" />

    <circle cx="130" cy="84" r="12" />
    <path d="M120 120C122 104 138 104 140 120" />
    <path d="M126 136L110 156" />
    <path d="M136 136L150 158" />
    <path d="M120 108L98 116" />
    <path d="M142 110L160 120" />

    <circle cx="190" cy="92" r="12" />
    <path d="M178 120C184 108 200 108 206 120" />
    <path d="M184 120C182 150 198 160 212 168" />
    <path d="M184 120C178 136 160 146 146 150" />
    <path d="M196 146L210 170" />

    <path d="M210 84C216 78 226 78 234 82" />
    <path d="M230 110H270" />
    <path d="M224 110C226 96 244 96 246 110" />
    <path d="M224 110V126" />
    <path d="M246 110V126" />
    <path d="M232 126H238" />

    <path d="M274 126L290 64L306 126" />
    <path d="M282 126V100" />
  </g>
</svg>
